# xmcd
#
# Track frame offsets:
#	150
#	31925
#	61148
#	111435
#	131531
#	192131
#	229479
#	289634
#	313828
#
# Disc length: 4328 seconds
#
# Revision: 0
# Processed by: cddbd v1.5.2PL0 Copyright (c) Steve Scherf et al.
# Submitted via: audiograbber 1.83.01
#
DISCID=7f10e609
DTITLE=Grateful Dead - 90-03-22 Copps Coliseum, Hamilton, Ontario, Canada
DYEAR=1900
DGENRE=
TTITLE0=Samson and Delilah
TTITLE1=Believe It Or Not
TTITLE2=Truckin
TTITLE3=Drums
TTITLE4=Sapce
TTITLE5=The Other One
TTITLE6=Hey Jude > Mr Fantasy > Hey Jude
TTITLE7=Sugar Magnolia
TTITLE8=Sunshine Daydream
EXTD=
EXTT0=
EXTT1=
EXTT2=
EXTT3=
EXTT4=
EXTT5=
EXTT6=
EXTT7=
EXTT8=
PLAYORDER=
